#!OML:ASF X:\für Bonn\!DataBase\2005_08_10_Bjorn_Final\c3d\bjorn.ASF
:FULLY-SPECIFIED
:DEGREES
242
root -14.4552 17.6337 7.96111 -1462.22 58.3103 -27.9262
lowerback 2.45272 -3.63646 10.5492
upperback 10.0976 -5.10358 3.46909
thorax 8.8517 -1.70512 -2.35361
lowerneck -5.61641 7.85321 1.3536
upperneck -0.151352 10.5624 -7.08691
head 1.39704 5.18815 -2.128
rclavicle -1.49089e-013 9.58142e-014
rhumerus -43.699 5.21485 -88.7379
rradius 75.1835
rwrist 0.194055
rhand -35.8251 31.0337
rfingers 7.12502
rthumb -8.94107 1.24311
lclavicle -1.49089e-013 9.58142e-014
lhumerus -35.9765 -36.6672 103.809
lradius 89.8442
lwrist -7.38366
lhand -43.5523 -29.2352
lfingers 7.12502
lthumb -16.3902 0.0922666
rfemur -23.5899 -3.17343 21.6348
rtibia 48.7323
rfoot -23.0131 17.2727
rtoes -29.4337
lfemur -0.461667 -3.08978 -14.4429
ltibia 74.2083
lfoot -2.63434 5.25548
ltoes -7.21729
243
root -14.2351 17.5638 8.10115 -1463.11 58.4913 -28.7821
lowerback 2.59359 -3.38994 10.8299
upperback 10.1234 -4.76611 3.74733
thorax 8.85013 -1.52341 -2.18957
lowerneck -5.96568 7.72879 1.03758
upperneck -0.0277008 10.4326 -7.16974
head 1.47836 5.11326 -2.0907
rclavicle 1.39149e-015 -4.05521e-014
rhumerus -42.0695 5.30377 -88.7994
rradius 75.3906
rwrist 0.112069
rhand -35.2049 30.8389
rfingers 7.12502
rthumb -8.34248 1.0236
lclavicle 1.39149e-015 -4.05521e-014
lhumerus -36.7942 -35.3806 104.576
lradius 88.9851
lwrist -8.11945
lhand -43.5543 -29.4888
lfingers 7.12502
lthumb -16.3921 -0.161418
rfemur -22.7033 -3.51878 21.9677
rtibia 49.2591
rfoot -24.2291 17.5727
rtoes -29.461
lfemur -2.61937 -2.54752 -13.5434
ltibia 76.9291
lfoot -3.83058 5.08169
ltoes -7.84306
244
root -14.0125 17.5057 8.23798 -1463.85 58.7091 -29.5789
lowerback 2.62692 -3.14302 11.0199
upperback 10.1066 -4.44058 4.01911
thorax 8.86516 -1.35617 -1.98955
lowerneck -6.20104 7.62202 0.853695
upperneck 0.0751339 10.3205 -7.34749
head 1.54883 5.04813 -2.1107
rclavicle -5.24792e-014 7.7526e-014
rhumerus -40.5706 5.69346 -88.9701
rradius 75.6338
rwrist -0.237921
rhand -34.7131 31.1999
rfingers 7.12502
rthumb -7.86789 1.36632
lclavicle -5.24792e-014 7.7526e-014
lhumerus -37.6656 -33.9492 105.285
lradius 88.162
lwrist -8.71197
lhand -43.4771 -29.6006
lfingers 7.12502
lthumb -16.3177 -0.267181
rfemur -21.8079 -3.9224 22.2317
rtibia 49.5481
rfoot -25.4059 17.8263
rtoes -29.6533
lfemur -4.93937 -1.94039 -12.7081
ltibia 79.3586
lfoot -5.02301 4.98552
ltoes -8.05554
245
root -13.7847 17.4644 8.37289 -1464.49 58.9225 -30.3293
lowerback 2.59599 -2.86195 11.2077
upperback 10.0433 -4.07409 4.21678
thorax 8.86274 -1.16921 -1.86884
lowerneck -6.31492 7.51304 0.843869
upperneck 0.194028 10.1919 -7.50557
head 1.61202 4.9765 -2.15938
rclavicle 3.75703e-014 -3.37934e-014
rhumerus -38.9846 6.11381 -89.3157
rradius 75.7566
rwrist -0.308839
rhand -34.4577 31.809
rfingers 7.12502
rthumb -7.62132 1.96634
lclavicle 3.75703e-014 -3.37934e-014
lhumerus -38.7062 -32.536 105.886
lradius 87.5356
lwrist -9.24849
lhand -43.3197 -29.2947
lfingers 7.12502
lthumb -16.1662 0.0511453
rfemur -20.824 -4.30604 22.4562
rtibia 49.5718
rfoot -26.4645 18.0664
rtoes -29.8211
lfemur -7.35437 -1.19759 -11.9161
ltibia 81.4768
lfoot -6.09815 4.87871
ltoes -7.72122
246
root -13.5495 17.4392 8.50401 -1465.06 59.1428 -30.9992
lowerback 2.51613 -2.55583 11.4032
upperback 9.95097 -3.67685 4.31178
thorax 8.85172 -0.96458 -1.86252
lowerneck -6.19362 7.39629 1.1315
upperneck 0.249148 10.0259 -7.73184
head 1.6338 4.89174 -2.29294
rclavicle -2.06736e-014 -3.81667e-014
rhumerus -37.4425 6.5443 -89.8586
rradius 75.8722
rwrist 0.141074
rhand -34.7494 32.4252
rfingers 7.12502
rthumb -7.90291 2.59293
lclavicle -2.06736e-014 -3.81667e-014
lhumerus -39.8424 -31.2319 106.318
lradius 87.0579
lwrist -9.74684
lhand -43.1305 -28.5608
lfingers 7.12502
lthumb -15.9841 0.799734
rfemur -19.6736 -4.69658 22.6072
rtibia 49.3168
rfoot -27.457 18.2674
rtoes -30.1838
lfemur -9.77292 -0.374036 -11.2479
ltibia 83.284
lfoot -7.16054 4.87812
ltoes -7.26174
247
root -13.311 17.4209 8.63181 -1465.48 59.415 -31.49
lowerback 2.39665 -2.21464 11.534
upperback 9.86949 -3.23541 4.31069
thorax 8.87829 -0.737883 -1.92271
lowerneck -6.00054 7.24242 1.59789
upperneck 0.259206 9.79534 -7.98182
head 1.63636 4.77751 -2.47254
rclavicle 1.08338e-014 -1.63003e-014
rhumerus -35.9664 6.98981 -90.5074
rradius 76.0967
rwrist 0.916942
rhand -35.2136 32.9541
rfingers 7.12502
rthumb -8.35088 3.13914
lclavicle 1.08338e-014 -1.63003e-014
lhumerus -40.9929 -30.1962 106.579
lradius 86.7807
lwrist -10.1118
lhand -42.8063 -27.239
lfingers 7.12502
lthumb -15.6718 2.14627
rfemur -18.3781 -4.96997 22.6228
rtibia 48.8095
rfoot -28.1671 18.4841
rtoes -30.0598
lfemur -12.2047 0.568693 -10.7468
ltibia 84.8199
lfoot -8.24865 4.95088
ltoes -7.62873
248
root -13.0663 17.4137 8.75677 -1465.82 59.7293 -31.8566
lowerback 2.25861 -1.84799 11.635
upperback 9.79884 -2.76007 4.22585
thorax 8.93052 -0.492373 -2.05358
lowerneck -5.89597 7.04973 2.03425
upperneck 0.331996 9.51529 -8.10302
head 1.66062 4.63702 -2.6044
rclavicle -5.68524e-014 -3.06128e-014
rhumerus -34.583 7.39654 -91.1971
rradius 76.4906
rwrist 1.63585
rhand -35.2237 33.3557
rfingers 7.12502
rthumb -8.36071 3.54112
lclavicle -5.68524e-014 -3.06128e-014
lhumerus -42.1588 -29.5058 106.663
lradius 86.7407
lwrist -10.3251
lhand -42.3522 -25.505
lfingers 7.12502
lthumb -15.2345 3.91406
rfemur -16.9173 -5.11995 22.5497
rtibia 48.0696
rfoot -28.7198 18.6504
rtoes -29.7139
lfemur -14.5751 1.42804 -10.495
ltibia 86.0617
lfoot -9.35918 5.13487
ltoes -8.14982
